<?xml version="1.0" standalone="no"?>
<!DOCTYPE svg PUBLIC "-//W3C//DTD SVG 20010904//EN"
 "http://www.w3.org/TR/2001/REC-SVG-20010904/DTD/svg10.dtd">
<svg version="1.0" xmlns="http://www.w3.org/2000/svg"
 width="260.000000pt" height="260.000000pt" viewBox="0 0 260.000000 260.000000"
 preserveAspectRatio="xMidYMid meet">
<metadata>
Created by potrace 1.11, written by Peter Selinger 2001-2013
</metadata>
<g transform="translate(0.000000,260.000000) scale(0.100000,-0.100000)"
fill="#000000" stroke="none">
<path d="M645 2493 c-27 -36 -66 -87 -85 -113 -19 -26 -47 -62 -62 -81 -123
-155 -376 -494 -372 -499 3 -3 76 -6 162 -6 87 -1 164 -2 173 -3 14 -1 16 -43
16 -383 0 -211 3 -401 7 -422 14 -87 55 -149 120 -183 43 -22 143 -20 191 5
51 25 69 45 97 107 22 49 22 60 25 415 1 201 2 388 2 415 l1 51 171 -1 c94 0
173 3 175 7 4 6 -35 67 -56 88 -3 3 -32 41 -65 85 -33 44 -76 100 -96 125 -20
25 -107 138 -194 253 -87 114 -158 207 -159 207 0 0 -23 -30 -51 -67z"/>
<path d="M1815 1814 c-113 -28 -167 -52 -246 -110 -26 -19 -48 -34 -50 -34 -2
0 -4 28 -4 63 l0 62 -120 1 -120 2 0 -457 c0 -443 -1 -458 -23 -527 -12 -40
-38 -96 -58 -125 l-37 -54 -1 -288 c-1 -182 3 -292 9 -297 6 -4 87 -7 181 -7
l171 0 1 301 c0 166 1 305 1 310 1 4 26 -15 57 -44 57 -51 123 -90 179 -105
17 -5 37 -10 45 -12 32 -8 167 -3 215 8 129 31 235 102 326 219 190 243 193
622 6 864 -86 111 -210 198 -315 222 -37 8 -192 14 -217 8z m90 -316 c134 -53
215 -193 210 -364 -6 -194 -137 -334 -313 -334 -177 0 -307 178 -288 391 8 99
40 171 105 242 66 72 194 101 286 65z"/>
</g>
</svg>
